<svg xmlns="http://www.w3.org/2000/svg" viewBox="0 0 100 100" role="img" aria-label=""><rect x="2" y="2" width="96" height="96" rx="22" fill="#F5F6F7" stroke="#DCDFE3" stroke-width="2"/><path transform="translate(20 20) scale(.6)" fill="#121418" fill-rule="evenodd" d="m94 2h-88c-2.2109 0-4 1.7891-4 4v88c0 2.2109 1.7891 4 4 4h88c2.2109 0 4-1.7891 4-4v-88c0-2.2109-1.7891-4-4-4zm-84 13.656 12 12v44.688l-12 12zm5.6562 74.344 12-12h44.688l12 12zm14.344-20v-40h40v40zm42.344-48h-44.688l-12-12h68.688z"/></svg>